# xmcd
# Copyright (C) 1995-1998 Ti Kan
#
# Track frame offsets:
#       150
#       11896
#       20809
#       31692
#       43734
#       55182
#       66720
#       77596
#       87772
#       98880
#       109214
#       120476
#       130711
#       140525
#       151550
#       161458
#       175514
#       185269
#       198467
#       209936
#       232280
#
# Disc length: 4440 seconds
#
# Revision: 0
# Processed by: cddbd v1.5.2PL0 Copyright (c) Steve Scherf et al.
# Submitted via: CD-Import v1.0
#
DISCID=21115615
DTITLE=Gene Vincent - The Very Best Of Gene Vincent
DYEAR=2005
DGENRE=
TTITLE0=Be-Bop-A-Lula
TTITLE1=Who Slapped John?
TTITLE2=Bluejean Bop
TTITLE3=Unchained Melody
TTITLE4=Woman Love
TTITLE5=Pink Thunderbird
TTITLE6=Jezebel
TTITLE7=Teenage Partner
TTITLE8=She She Little Sheila
TTITLE9=I Got A Baby
TTITLE10=Baby Blue
TTITLE11=Dance To The Bop
TTITLE12=Lotta Lovin'
TTITLE13=Git It
TTITLE14=Say Mama
TTITLE15=Beautiful Brown Eyes
TTITLE16=Pistol Packin' Mama
TTITLE17=Over The Rainbow
TTITLE18=Wedding Bells
TTITLE19=Bop Street
TTITLE20=Data Track
EXTD=
EXTT0=
EXTT1=
EXTT2=
EXTT3=
EXTT4=
EXTT5=
EXTT6=
EXTT7=
EXTT8=
EXTT9=
EXTT10=
EXTT11=
EXTT12=
EXTT13=
EXTT14=
EXTT15=
EXTT16=
EXTT17=
EXTT18=
EXTT19=
EXTT20=
PLAYORDER=
